<?xml version="1.0" encoding="utf-8"?>
<!-- Generator: Adobe Illustrator 26.3.1, SVG Export Plug-In . SVG Version: 6.00 Build 0)  -->
<svg version="1.1" id="_イヤー_2" xmlns="http://www.w3.org/2000/svg" xmlns:xlink="http://www.w3.org/1999/xlink" x="0px"
	 y="0px" viewBox="0 0 360 163" style="enable-background:new 0 0 360 163;" xml:space="preserve">
<style type="text/css">
	.st0{fill-rule:evenodd;clip-rule:evenodd;fill:#C05621;}
	.st1{fill-rule:evenodd;clip-rule:evenodd;fill:#2F855A;}
	.st2{fill-rule:evenodd;clip-rule:evenodd;fill:#48BB78;}
	.st3{fill-rule:evenodd;clip-rule:evenodd;fill:#ED8936;}
	.st4{fill:#2F855A;}
	.st5{fill:#48BB78;}
	.st6{fill:#ED8936;}
</style>
<g>
	<path class="st0" d="M52.6,108.7l-31.3,28.6l8.6,6.7l22.7-21.5V108.7z"/>
	<path class="st1" d="M22.2,100.9L0,120.6l8.5,6.7l13.7-12.6V100.9z M48.4,28.5l-8.5,7V11.4l8.5-6.8V28.5z"/>
	<path class="st2" d="M48.4,4.6L8.5,38.2v89.1L0,120.6V34.3l1.5-1.2l38-32.6L48.4,4.6z"/>
	<path class="st0" d="M69.7,33.3l-8.5,7.1V28.1l8.5-6.8V33.3z"/>
	<path class="st3" d="M69.7,21.3L29.9,54.9V144l-8.6-6.7V51l1.6-1.2l37.9-32.6L69.7,21.3z"/>
	<path class="st4" d="M112.5,108.7h-10.6l24.5,31h10.8L112.5,108.7z"/>
	<path class="st5" d="M104.1,48.1c3.6,0.1,7,0.9,10.1,2.3s6,3.4,8.3,5.9c2.4,2.4,4.3,5.3,5.6,8.6c1.4,3.3,2,6.8,2,10.5
		c0,3.4-0.6,7-1.7,10c-1.2,3-2.8,5.7-4.8,8.1s-4.4,4.4-7.1,6s-5.7,2.6-8.9,3.1H75.7V94h27.7c2.5,0,4.8-0.5,7.1-1.5
		c2.2-1,4.2-2.3,5.9-4s3-3.7,4-5.9s1.4-4.7,1.4-7.3c0-2.6-0.5-5.1-1.4-7.4c-1-2.3-2.3-4.3-4-5.9c-1.7-1.7-3.6-3-5.9-4
		c-2.2-1-4.6-1.5-7.1-1.5H69.6v46.1l-0.1,8.6l-8.3,8.1V48.1C61.2,48.1,104.1,48.1,104.1,48.1z"/>
	<path class="st6" d="M194.3,82.6C194.3,82.6,194.2,82.6,194.3,82.6c-0.7-0.5-1.4-1-2.1-1.4c-0.1-0.1-0.2-0.1-0.3-0.2
		c-0.7-0.4-1.3-0.7-2-1.1l-0.6-0.3c-0.6-0.3-1.2-0.6-1.9-0.8l-0.9-0.3c-0.6-0.2-1.1-0.4-1.7-0.6c-0.4-0.1-0.9-0.2-1.3-0.3l-1.5-0.3
		c-0.6-0.1-1.2-0.2-1.7-0.3c-0.4,0-0.8-0.1-1.2-0.2c-1-0.1-2-0.1-3-0.1c-17.3,0-31.3,13.8-31.3,30.7s14,30.7,31.3,30.7
		c7.9,0,15-2.9,20.5-7.6c-2-1.7-3.8-3.6-5.3-5.8c-4.1,3.5-9.4,5.6-15.2,5.6c-11.5,0-21.1-8.3-23-19.1c-0.5-3,0-7.6,0-7.6
		c1.8-10.6,11-18.7,22.2-19.1h0.8c0.8,0,1.5,0,2.3,0.1c0.3,0,0.7,0.1,1,0.1c0.4,0,0.8,0.1,1.1,0.2c0.5,0.1,0.9,0.2,1.4,0.3
		c0.2,0.1,0.4,0.1,0.7,0.2c0.6,0.2,1.1,0.3,1.6,0.5c0.1,0,0.2,0.1,0.3,0.1c2.5,1,4.9,2.4,6.9,4.1c4,3.4,6.9,8.2,7.8,13.6h-43
		c-0.5,3.7-0.2,6.5,0,7.6h43v0.1h8c0.2-1.3,0.3-2.5,0.3-3.9C207.2,97.2,202.1,88.2,194.3,82.6L194.3,82.6z"/>
	<path class="st5" d="M253,76.4c-17.1,0-30.9,13.5-31.3,30.1v56l7.7-6l0.2-15.6v-34.4c0.3-12.4,10.7-22.3,23.4-22.3
		s23.4,10.3,23.4,22.9S265.9,130,253,130c-8.7,0-16.4-4.7-20.4-11.7v12c5.5,4.6,12.6,7.5,20.4,7.5c17.3,0,31.3-13.8,31.3-30.7
		S270.2,76.4,253,76.4z"/>
	<path class="st6" d="M328.7,137.8c-17.3,0-31.3-13.8-31.3-30.7s14-30.7,31.3-30.7S360,90.2,360,107.1S346,137.8,328.7,137.8z
		 M328.7,84.2c-12.9,0-23.4,10.3-23.4,22.9s10.5,22.9,23.4,22.9s23.4-10.3,23.4-22.9S341.6,84.2,328.7,84.2z"/>
</g>
</svg>
