<svg width="384" height="617" viewBox="0 0 384 617" fill="none" xmlns="http://www.w3.org/2000/svg">
<path d="M5.32263 613.07V3.92999H343.522C284.76 80.2493 295.831 119.156 321.38 165.215C338.731 196.654 362.79 231.395 375.99 283.741C396.322 364.934 300.515 417.752 236.75 490.692C229.192 499.338 222.06 508.219 215.672 517.494C175.433 575.814 94.849 613.07 6.17426 613.07H5.32263Z" fill="url(#paint0_linear_1008_18966)" fill-opacity="0.6"/>
<path d="M5.32257 0H343.522C345.438 0 347.141 0.707397 348.099 1.96497C349.057 3.22253 349.057 4.63733 348.099 5.8949C320.847 41.2643 307.541 69.8743 306.05 96.1262C304.773 119.784 313.183 140.299 326.17 163.8C329.363 169.616 332.77 175.432 336.389 181.642C352.251 208.994 370.241 240.041 381.099 283.113C396.535 344.262 347.78 389.771 296.15 437.952C277.415 455.401 258.147 473.479 241.221 492.814C233.024 502.167 226.211 510.892 220.463 519.302C200.237 548.619 169.578 573.299 131.894 590.512C93.9973 607.804 50.5648 617 6.17416 617H5.32257C2.34189 617 -6.10352e-05 615.271 -6.10352e-05 613.07V3.92993C-6.10352e-05 1.72919 2.34189 0 5.32257 0ZM334.473 7.85986H10.6452V609.14C51.5229 608.511 91.336 599.865 126.252 583.831C162.233 567.326 191.508 543.825 210.882 515.765C216.843 507.119 223.869 498.237 232.279 488.648C249.524 468.92 269.005 450.764 287.847 433.158C313.608 409.106 337.986 386.391 354.167 362.262C372.051 335.538 377.373 310.858 370.773 284.606C360.128 242.398 342.351 211.824 326.702 184.786C323.083 178.576 319.676 172.681 316.483 166.786C292.318 123.164 278.266 83.629 334.473 7.85986Z" fill="url(#paint1_linear_1008_18966)" fill-opacity="0.6"/>
<defs>
<linearGradient id="paint0_linear_1008_18966" x1="192.045" y1="613.07" x2="190.962" y2="85.0176" gradientUnits="userSpaceOnUse">
<stop stop-color="#FFFAF0"/>
<stop offset="1" stop-color="#FFFAF0"/>
</linearGradient>
<linearGradient id="paint1_linear_1008_18966" x1="192" y1="617" x2="190.919" y2="82.1338" gradientUnits="userSpaceOnUse">
<stop stop-color="#FFFAF0"/>
<stop offset="1" stop-color="#FFFAF0"/>
</linearGradient>
</defs>
</svg>
