<svg width="688" height="477" viewBox="0 0 688 477" fill="none" xmlns="http://www.w3.org/2000/svg">
<path d="M780.914 235.922C788.224 163.863 759.087 86.73 699.851 40.7774C649.87 2.00381 581.951 -9.13585 521.854 7.67549C486.742 17.4965 455.593 29.4703 422.042 36.0663C402.632 39.8813 382.417 41.8988 360.166 40.6538C349.553 40.0612 338.998 38.9377 328.483 37.45C292.875 32.4212 257.72 23.2648 222.265 16.6804C176.339 8.14912 127.942 4.08995 84.2223 18.6736C41.8239 32.8161 4.97461 68.1769 0.953539 111.234C0.828707 112.576 0.733308 113.924 0.673684 115.279C-1.05165 153.767 23.2289 190.1 53.7367 215.651C66.527 226.363 80.4038 235.619 94.7325 244.277C114.588 256.277 135.306 267.128 155.188 279.106C203.775 308.381 247.526 344.518 293.089 378.121C311.487 391.693 330.182 404.848 349.606 416.97C417.136 459.111 499.075 488.801 576.126 471.137C613.123 462.658 646.67 443.677 675.621 420.209C693.812 405.461 710.381 388.682 724.74 370.322C755.342 331.222 775.939 284.956 780.914 235.922Z" fill="url(#paint0_linear_1008_13464)"/>
<defs>
<linearGradient id="paint0_linear_1008_13464" x1="748.875" y1="74.8446" x2="197.828" y2="251.573" gradientUnits="userSpaceOnUse">
<stop stop-color="#F7FAFC" stop-opacity="0"/>
<stop offset="1" stop-color="#F7FAFC"/>
</linearGradient>
</defs>
</svg>
