<?xml version="1.0" encoding="utf-8"?>
<!-- Generator: Adobe Illustrator 26.3.1, SVG Export Plug-In . SVG Version: 6.00 Build 0)  -->
<svg version="1.1" id="レイヤー_1" xmlns="http://www.w3.org/2000/svg" xmlns:xlink="http://www.w3.org/1999/xlink" x="0px"
	 y="0px" viewBox="0 0 620 496" style="enable-background:new 0 0 620 496;" xml:space="preserve">
<style type="text/css">
	.st0{fill:url(#SVGID_1_);}
	.st1{fill:#FBB03B;}
	.st2{fill:#23286B;}
	.st3{fill:#EDF2F7;}
	.st4{fill:url(#SVGID_00000176015471989921205380000007499497620215968162_);}
	.st5{fill:url(#SVGID_00000058571345523449063680000011650185610209961915_);}
	.st6{fill:#FFFFFF;}
	.st7{fill:#CBD5E0;}
	.st8{fill:#276749;}
	.st9{fill:url(#SVGID_00000122704552994965964670000011037322200991526585_);}
	.st10{fill:#68D391;}
	.st11{fill:#25855A;}
	.st12{fill:url(#SVGID_00000166666426239992140960000012695482369697264824_);}
	.st13{fill:url(#SVGID_00000129163390195636546000000016895752500083733154_);}
	.st14{fill:none;stroke:#68D391;stroke-width:3.3229;stroke-linecap:round;stroke-miterlimit:10;}
	.st15{fill:#22543D;}
	.st16{fill:#9AE6B4;}
	.st17{fill:url(#SVGID_00000163068763590801086800000012145437769217206674_);}
	.st18{fill:#E2E8F0;}
	.st19{fill:#ED8936;}
	.st20{fill:#DD6B20;}
	.st21{fill:#1C4532;}
	.st22{fill:url(#SVGID_00000122704433255212373380000013014975688013706413_);}
	.st23{fill:url(#SVGID_00000054968745029905168150000006040713719702569119_);}
</style>
<g>

		<linearGradient id="SVGID_1_" gradientUnits="userSpaceOnUse" x1="316.8703" y1="483.9999" x2="316.8703" y2="-11.0002" gradientTransform="matrix(1 0 0 -1 0 483.9999)">
		<stop  offset="0" style="stop-color:#25855A"/>
		<stop  offset="1" style="stop-color:#68D391"/>
	</linearGradient>
	<path class="st0" d="M353.9,1.4C287.2,10.6,201,30.3,112,97.1c-89,66.8-26.3,153.6,18,179.7c44.2,26.1,31.4,70.7,16.8,90.4
		c-17.4,23.4-50.3,105,71.4,122.6c128.6,18.5,241.9-16.3,285.3-36.5c43.3-20.2,50.4-69,32.7-96.2c-17.6-27.2-57.5-63.5,9.1-145.2
		c34.8-42.7,29.4-98.6-30-129.4C452.1,49.7,436.1-9.9,353.9,1.4L353.9,1.4z"/>
	<path class="st1" d="M439.1,184.1c-0.3,1.3,0.6,2.6,1.9,2.8c1.3,0.3,2.6-0.6,2.8-1.9c0.3-1.3-0.6-2.6-1.9-2.8
		C440.6,181.9,439.4,182.7,439.1,184.1z M492,424.8c-1.1,0.8-1.4,2.3-0.7,3.4c0.7,1.1,2,1.4,3.1,0.7c0.1,0,0.2-0.1,0.3-0.2
		c1.1-0.7,1.4-2.2,0.7-3.3C494.7,424.4,493.2,424.1,492,424.8z M473.1,301.1c-1.3,0.4-2.1,1.7-1.9,3c0.3,1.3,1.6,2.2,3,1.9
		c1.3-0.3,2.2-1.6,1.9-3C475.7,301.8,474.4,300.9,473.1,301.1z M154.9,260.4c-2.5,0.4-4.2,2.8-3.9,5.3c0.3,2.4,2.4,4.2,4.9,4
		c0.1,0,0.2,0,0.2,0c2.5-0.4,4.2-2.8,3.9-5.3C159.7,261.8,157.4,260.1,154.9,260.4z M265.1,244.4c-2.5,0.4-4.2,2.8-3.8,5.3
		c0.4,2.5,2.7,4.2,5.2,3.8c2.5-0.3,4.2-2.6,3.9-5.1C270,245.9,267.7,244.1,265.1,244.4z M375.6,228.4c-2.5,0.3-4.2,2.6-3.9,5.1
		c0,0.1,0,0.1,0,0.2c0.3,2.4,2.4,4.2,4.9,4c0.1,0,0.2,0,0.2,0c2.5-0.5,4.3-2.8,4-5.3C380.5,229.8,378.1,228.1,375.6,228.4z
		 M216.4,30c-0.5,2.5,1,4.9,3.5,5.5c2.5,0.5,4.9-1,5.4-3.5c0.5-2.4-1-4.8-3.4-5.4C219.5,26,217.1,27.5,216.4,30z M324.5,57.5
		c-0.5,2.5,1,4.9,3.5,5.5c2.5,0.5,4.9-1,5.4-3.5c0.5-2.4-1-4.8-3.4-5.4C327.6,53.5,325.2,55,324.5,57.5z M276.1,450.3
		c-2.2,1.4-2.9,4.2-1.5,6.4c1.3,2.2,4,2.9,6.2,1.6c0,0,0,0,0,0c2.2-1.1,3-3.8,1.9-6c-0.1-0.1-0.1-0.2-0.2-0.3
		C281.1,449.8,278.4,449.1,276.1,450.3z M372.1,393.2c-2.1,1.4-2.9,4.2-1.7,6.4c1.4,2.2,4.2,2.8,6.4,1.5c2.2-1.3,2.9-4.1,1.6-6.3
		c0,0,0-0.1,0-0.1C377,392.7,374.3,392,372.1,393.2C372.1,393.2,372.1,393.2,372.1,393.2z M467.8,336.3c-2.1,1.2-2.9,3.9-1.7,6
		c0,0.1,0.1,0.1,0.1,0.2c1.2,2.2,4,3,6.2,1.8c0.1,0,0.1-0.1,0.2-0.1c2.2-1.3,2.9-4.2,1.6-6.4C472.9,335.6,470.1,334.9,467.8,336.3
		C467.9,336.3,467.9,336.3,467.8,336.3z M268.6,341c-2.1,1.1-2.9,3.5-2,5.6c0.9,2,3.3,2.9,5.3,1.9c0.1,0,0.1-0.1,0.2-0.1
		c2.1-0.9,3-3.4,2.1-5.4c0,0,0,0,0-0.1C273,341.1,270.7,340.2,268.6,341z M358.5,298.7c-2,1-2.8,3.4-1.9,5.4c0.9,2,3.3,2.9,5.3,1.9
		c0.1,0,0.1-0.1,0.2-0.1c2.1-0.9,3-3.4,2.1-5.4c0,0,0,0,0-0.1C363,298.5,360.5,297.7,358.5,298.7z M448.7,256.1
		c-2.1,0.9-3,3.4-2.1,5.4c0,0,0,0,0,0.1c0.8,2,3.1,2.9,5.1,2c0.1,0,0.2-0.1,0.4-0.2c2.1-0.9,3-3.4,2.1-5.4c0,0,0,0,0-0.1
		C453.1,256,450.7,255.2,448.7,256.1z M267.6,122.7c-2.3,0.2-4,2.1-3.8,4.4c0.1,2.3,2,4,4.2,3.9c2.3-0.1,4-2,4-4.3
		C271.9,124.4,269.9,122.6,267.6,122.7z M367.1,118c-2.2,0-3.9,1.8-3.9,4c0,0.1,0,0.2,0,0.2c0.1,2.3,2,4,4.2,3.9c2.3-0.1,4-2,4-4.3
		C371.3,119.6,369.4,117.9,367.1,118z M424.5,470.2c-1.5,1.6-1.4,4,0.1,5.5c0.1,0.1,0.1,0.1,0.2,0.2c1.6,1.6,4.2,1.5,5.8-0.1
		c0,0,0.1-0.1,0.1-0.1c1.4-1.7,1.3-4.3-0.4-5.8c-1.6-1.5-4.2-1.4-5.7,0.2C424.6,470.1,424.5,470.1,424.5,470.2z M491.4,396.4
		c-1.5,1.7-1.4,4.3,0.2,5.9c1.7,1.5,4.4,1.3,5.9-0.4c1.4-1.7,1.3-4.1-0.2-5.7c-1.6-1.6-4.2-1.5-5.7,0
		C491.5,396.2,491.5,396.3,491.4,396.4z M350,382.5c-1.7,2-1.5,5.1,0.4,6.9c2,1.7,5.1,1.4,6.8-0.6c1.6-2,1.4-4.9-0.5-6.6
		C354.8,380.5,351.8,380.6,350,382.5z M426.4,296.6c-1.7,2-1.5,4.9,0.4,6.7c2,1.8,5,1.6,6.7-0.4s1.6-5-0.4-6.7
		C431.2,294.6,428.2,294.7,426.4,296.6z M247.9,153.7c-2.3,1.2-3.2,4-2.2,6.4c1.2,2.3,4.1,3.2,6.4,2.1c2.3-1.1,3.4-3.8,2.3-6.2
		c0,0,0-0.1,0-0.1C253.1,153.5,250.3,152.5,247.9,153.7C247.9,153.7,247.9,153.6,247.9,153.7z M351.4,103.5c-2.4,1.2-3.4,4-2.2,6.4
		c0,0,0,0,0,0c1.1,2.3,3.9,3.3,6.2,2.1c2.3-1.1,3.3-4,2.2-6.3C356.6,103.5,353.8,102.5,351.4,103.5z M197,93.4
		c-2.4,1.1-3.4,3.9-2.3,6.3c1.1,2.4,3.9,3.4,6.3,2.3c2.3-1.1,3.3-3.8,2.3-6.1C202.2,93.4,199.4,92.3,197,93.4z M302,47.8
		c-2.4,1.1-3.5,3.9-2.4,6.3c1.1,2.3,3.8,3.4,6.2,2.5c2.4-1.1,3.5-3.9,2.6-6.4C307.2,47.9,304.4,46.8,302,47.8z M376.4,252.1
		c-1.8,1.9-1.7,5,0.2,6.8c1.9,1.8,4.8,1.7,6.6-0.1c1.8-1.8,1.9-4.7,0.2-6.5c0,0-0.1-0.1-0.2-0.1c-1.8-1.9-4.8-1.9-6.7-0.1
		C376.4,252,376.4,252,376.4,252.1z"/>
	<path class="st1" d="M287.7,245.3c-0.3,0-0.6-0.1-0.9-0.3c-0.8-0.5-1-1.6-0.5-2.3c0.6-0.8,56.1-82.6,123.2-100.4
		c0.9-0.2,1.8,0.3,2,1.2c0.2,0.9-0.3,1.8-1.2,2c-65.9,17.4-120.7,98.2-121.2,99C288.8,245.1,288.3,245.3,287.7,245.3z"/>
	<path class="st1" d="M333,295.6c-0.5,0-1-0.2-1.3-0.6c-0.6-0.7-0.5-1.8,0.2-2.4c1.1-1,116.6-97,252.1-105.9c0.9,0,1.7,0.6,1.8,1.6
		c0.1,0.9-0.6,1.7-1.6,1.8c-134.4,8.9-249,104.2-250.2,105.2C333.7,295.4,333.3,295.6,333,295.6z"/>
	<path class="st2" d="M478.6,118L444,140.2l-22.1-34.6l34.6-22.2L478.6,118z"/>
	<path class="st3" d="M539,394.6l8.6-2.7c0.7-0.5,1.5-0.8,2.2-1.4l-13.4,4.3C537.3,394.8,538.2,394.8,539,394.6z M532.9,394.6
		l19.5-6.3c0.4-0.3,0.6-0.7,1-1l-21.8,6.9C532.1,394.5,532.5,394.6,532.9,394.6z M529.5,393.8l25.5-8.2c0.3-0.2,0.4-0.5,0.7-0.8
		l-26.9,8.6C529.1,393.6,529.3,393.6,529.5,393.8z M527.5,392.5l29.3-9.4c0.2-0.2,0.3-0.5,0.5-0.8l-30.2,9.7
		C527.1,392.3,527.4,392.4,527.5,392.5z M526.1,391l31.9-10.2c0.2-0.2,0.2-0.5,0.3-0.8l-32.6,10.5C525.9,390.7,526,390.9,526.1,391z
		 M525.1,389.5l33.9-10.8c0-0.2,0.2-0.5,0.2-0.8l-34.4,11C524.9,389.1,525,389.3,525.1,389.5z M524.3,387.8l35.2-11.3
		c0-0.2,0.1-0.5,0.2-0.8L524.1,387C524.1,387.4,524.2,387.6,524.3,387.8z M523.7,386.1l36.3-11.6c0-0.2,0.1-0.5,0.1-0.7l-36.6,11.8
		C523.5,385.6,523.6,385.9,523.7,386.1z M523.4,384c0.1,0.1-0.1,0.2,0,0.2l36.9-11.8c0-0.2,0.1-0.5,0.1-0.7l-36.8,11.7
		C523.5,383.6,523.4,383.8,523.4,384z M525.3,381.4c-0.1,0.1-0.2,0.2-0.3,0.2l35.4-11.3c0-0.2-0.1-0.4,0-0.6l-34.5,11.1
		C525.6,381,525.5,381.2,525.3,381.4z M527,379.2l33.1-10.6c0-0.2-0.1-0.4-0.2-0.6l-32.6,10.5C527.3,378.7,527.1,378.8,527,379.2z
		 M528.1,376.8l31.8-10.2c-0.1-0.2-0.1-0.4-0.2-0.6l-31.4,10.1C528.1,376.5,528.1,376.7,528.1,376.8z M528.6,374.8l30.8-9.8
		c-0.1-0.2-0.2-0.3-0.2-0.6l-30.4,9.8C528.7,374.4,528.6,374.5,528.6,374.8z M528.8,372.8l30-9.6c-0.1-0.2-0.2-0.3-0.2-0.5
		l-29.8,9.5C528.8,372.4,528.8,372.6,528.8,372.8z M528.6,370.8l29.1-9.3c-0.1-0.2-0.2-0.3-0.2-0.5l-29,9.3
		C528.6,370.4,528.6,370.7,528.6,370.8z M528.2,369.1l28.4-9.2c-0.1-0.2-0.3-0.4-0.4-0.5l-28.4,9.1
		C528.1,368.7,528.1,368.9,528.2,369.1z M554.9,358l-27.7,8.8c0.1,0.2,0.2,0.3,0.2,0.5l27.9-8.9C555.4,358.3,555.1,358.1,554.9,358z
		 M553.3,356.6l-27,8.6c0.1,0.2,0.3,0.4,0.4,0.5l27.2-8.7C553.7,356.9,553.4,356.7,553.3,356.6z M551.1,355.3l-25.7,8.2
		c0.1,0.2,0.2,0.3,0.2,0.5l26.3-8.5C551.6,355.6,551.4,355.4,551.1,355.3z M548.4,354.3c-0.1,0.1-0.2-0.1-0.2,0l-22.7,7.2
		c-0.1,0.2-0.1,0.5-0.1,0.7l24-7.7C549,354.6,548.7,354.4,548.4,354.3z M542.6,354.1l-14.7,4.7c-0.5,0.4-1,0.7-1.5,1.1l18.7-5.9
		C544.3,354,543.4,354,542.6,354.1z"/>

		<linearGradient id="SVGID_00000170984772135769515340000004604696711129971370_" gradientUnits="userSpaceOnUse" x1="484.6323" y1="234.8207" x2="583.1697" y2="234.8207" gradientTransform="matrix(1 0 0 -1 0 483.9999)">
		<stop  offset="0" style="stop-color:#C6F6D5"/>
		<stop  offset="1" style="stop-color:#68D391"/>
	</linearGradient>
	<path style="fill:url(#SVGID_00000170984772135769515340000004604696711129971370_);" d="M582.6,263.9c1.1,3.2-0.2,6.7-1.8,9.7
		c-4.4,8.2-11.5,15-20,19c-4.7,2.2-9.8,3.5-14.6,5.6c-14.1,5.9-25.6,17.6-31.1,31.8c1.6-9.9-3.5-19.7-9.9-27.4
		c-6.2-7.8-13.8-14.8-18.3-23.7c-3.9-7.7-3.9-19.1,3.9-22.8c5.7-2.7,12.9,0.3,18.7-2.2c2.1-0.9,3.9-2.8,3.9-5
		c-0.3-5.7-11.6-5.3-11.9-11c-0.3-6.6,17-4.6,14.7-10.9c-0.9-2.6-4.6-3.4-5.9-5.9c-1.3-2.5-1.2-5.9,1-7.7c2.9-2.3,7.2-0.5,10.8-1.3
		c4.1-0.9,6.7-5.1,7.6-9.3c0.8-4.2,0.4-8.4,1-12.6c1.5-10.3,9.9-19.1,20-21.3s21.3,2.6,26.8,11.4c2.2,3.6,3.5,8.5,1.1,11.9
		c-2.1,2.9-6.6,4.9-6.2,8.4c0.5,4.9,9.5,5.3,9.6,10.2c0.2,5.7-11.6,5.7-11.3,11.4c0.2,2.5,2.9,4,4.5,6c3.1,3.7,1.8,10.1-2.4,12.4
		c-1.7,0.9-3.7,1.3-5,2.6c-3.4,3.3-0.1,9.2,3.9,11.6C575.9,257.4,581.2,259.3,582.6,263.9z"/>

		<linearGradient id="SVGID_00000047766999135888726040000010223609203469775253_" gradientUnits="userSpaceOnUse" x1="516.7994" y1="211.8297" x2="619.5867" y2="211.8297" gradientTransform="matrix(1 0 0 -1 0 483.9999)">
		<stop  offset="0" style="stop-color:#48BB78"/>
		<stop  offset="1" style="stop-color:#25855A"/>
	</linearGradient>
	<path style="fill:url(#SVGID_00000047766999135888726040000010223609203469775253_);" d="M553,264.3c2.4-1.3,4.9-2.5,6.9-4.5
		c3.9-4.3,3.7-10.8,4-16.7c0.3-5.9,2.4-12.7,8-14.3c4.7-1.3,10.6,1.5,14.1-1.9c1.3-1.2,1.8-3.1,2.8-4.6c4-6.7,14.6-6.2,20.4-1
		c5.8,5.2,8,13.2,9.9,20.7c0.7,2.8,0.8,6.6-1.9,7.4c-2.6,0.7-5.2-2.5-7.7-1.5c-2,0.8-2.2,3.6-1.4,5.7c0.7,2,1.9,4.1,1.5,6.2
		c-0.9,4-6.6,4.2-10.6,3.2c-4-1.1-9.2-2.2-11.5,1.3c2.5,8.1,4.7,18-1,24.4c-6.6,7.3-18.7,6.6-28.4,7.5
		c-18.2,1.7-31.1,15.6-41.3,30.8C516.2,301.5,530.8,276.4,553,264.3z"/>
	<path class="st6" d="M530.2,315.4c-0.1,0-0.1,0-0.2,0c-0.2-0.1-0.3-0.3-0.2-0.5c9.2-28.3,24-48,50.9-67.8c5-3.7,20.1-9.9,26.7-10.5
		c0.2,0,0.4,0.2,0.4,0.4c0,0.2-0.2,0.4-0.4,0.4c-6.2,0.5-21.4,6.8-26.2,10.3c-26.8,19.7-41.5,39.2-50.6,67.4
		C530.5,315.2,530.4,315.4,530.2,315.4z"/>
	<path class="st6" d="M544.5,232.4l-3.1-8.5c-1.1-0.1-2.2,0.1-3.3,0.5l3.3,9.1c0.2,0.5-0.1,1.1-0.6,1.2c-0.5,0.2-1.1-0.1-1.2-0.6
		l-3.3-8.9c-1,0.6-1.9,1.5-2.5,2.4l2.8,7.6c0.2,0.5-0.1,1.1-0.6,1.2c-0.5,0.2-1.1-0.1-1.2-0.6l-2.2-5.9c-1.2,3.1-1.3,7,0.1,10.9
		c0,0.1,0.1,0.2,0.1,0.2c-0.7,0.4-1.5,0.8-2.1,1.4c-1.9,1.4-4.4,3.8-5.2,7.2l0.9,0.2c0.8-3.1,3.1-5.3,4.9-6.6
		c0.6-0.5,1.2-0.8,1.9-1.2c1.5,3.2,3.9,5.9,6.5,7.2l-2.1-5.6c-0.2-0.5,0.1-1.1,0.6-1.2c0.5-0.2,1.1,0.1,1.2,0.6l2.7,7.2
		c1.2,0.3,2.3,0.4,3.5,0.2l-3.1-8.5c-0.2-0.5,0.1-1.1,0.6-1.2c0.5-0.2,1.1,0.1,1.2,0.6l3.2,8.6c1-0.5,1.9-1.2,2.7-1.9l-2.9-7.7
		c-0.2-0.5,0.1-1.1,0.6-1.2c0.5-0.2,1.1,0.1,1.2,0.6l2.5,6.6c0.8-1.2,1.5-2.4,2.1-3.7l-1.5-4.2c-0.2-0.5,0.1-1.1,0.6-1.2
		c0.5-0.2,1.1,0.1,1.2,0.6l0.8,2.2c1.5-3.7,2.5-7.3,3.9-8.5c-2.2-0.5-5.2-2.5-8.5-4.3l1.1,2.9c0.2,0.5-0.1,1.1-0.6,1.2
		c-0.5,0.2-1.1-0.1-1.2-0.6l-1.8-4.9c-1.3-0.6-2.6-1.1-3.9-1.4l2.7,7.5c0.2,0.5-0.1,1.1-0.6,1.2C545.3,233.2,544.7,233,544.5,232.4z
		"/>
	<path class="st7" d="M392,326.9h-86v95.7h86V326.9z"/>
	<path class="st8" d="M445.3,426.9v-7.4H349h-96.3v7.4H445.3z"/>

		<linearGradient id="SVGID_00000007400216740081142820000010788484484274544556_" gradientUnits="userSpaceOnUse" x1="160.1013" y1="217.7175" x2="537.9373" y2="217.7175" gradientTransform="matrix(1 0 0 -1 0 483.9999)">
		<stop  offset="0" style="stop-color:#EDF2F7"/>
		<stop  offset="1" style="stop-color:#E2E8F0"/>
	</linearGradient>
	<path style="fill:url(#SVGID_00000007400216740081142820000010788484484274544556_);" d="M537.9,143.9H160.1v244.7h377.8V143.9z"/>
	<path class="st6" d="M531.3,150H166.7v201.5h364.6V150z"/>
	<path class="st10" d="M330.5,370.5l5,5l5-5l-5-5L330.5,370.5z"/>
	<path class="st6" d="M344,370.5l5,5l5-5l-5-5L344,370.5z"/>
	<path class="st11" d="M357.6,370.5l5,5l5-5l-5-5L357.6,370.5z"/>

		<linearGradient id="SVGID_00000075878441235919693200000008263660087446687678_" gradientUnits="userSpaceOnUse" x1="198.7021" y1="148.6399" x2="102.9973" y2="122.3373" gradientTransform="matrix(1 0 0 -1 0 483.9999)">
		<stop  offset="0" style="stop-color:#C6F6D5"/>
		<stop  offset="1" style="stop-color:#68D391"/>
	</linearGradient>
	<path style="fill:url(#SVGID_00000075878441235919693200000008263660087446687678_);" d="M107.3,375.8c-0.2,3.4,1.9,6.5,4.3,8.9
		c6.5,6.9,15.2,11.6,24.4,13.1c5.2,0.8,10.5,0.8,15.7,1.5c15.3,1.9,29.5,10.3,38.7,22.6c-4.2-9.2-1.8-20,2.2-29.3
		c4-9.3,9.5-18,11.4-27.9c1.7-8.5-1.3-19.7-9.9-21.1c-6.3-1.1-12.5,3.8-18.8,2.9c-2.2-0.3-4.6-1.6-5.1-3.9
		c-1.2-5.6,9.9-8.2,8.6-13.9c-1.5-6.5-17.7,0-17.2-6.6c0.2-2.8,3.5-4.5,4.2-7.2c0.6-2.8-0.4-6.1-3-7.2c-3.4-1.5-7.1,1.5-10.8,1.6
		c-4.2,0.2-7.9-3.2-9.8-6.9c-1.9-3.8-2.6-8.1-4.3-12c-4.2-9.6-14.6-16-25.1-15.3c-10.4,0.6-20,8.2-23,18.3
		c-1.2,4.1-1.2,9.2,2.2,11.9c2.8,2.3,7.6,2.9,8.2,6.5c0.8,4.9-7.8,7.7-6.6,12.5c1.3,5.6,12.8,2.5,14,8.1c0.5,2.5-1.7,4.7-2.7,7
		c-2,4.4,0.9,10.3,5.6,11.4c1.8,0.5,3.9,0.2,5.6,1.2c4.2,2.3,2.5,8.9-0.7,12.3C112.1,367.9,107.6,371.1,107.3,375.8z"/>

		<linearGradient id="SVGID_00000101066655453611577970000010155567381286914476_" gradientUnits="userSpaceOnUse" x1="173.7071" y1="117.7049" x2="73.8533" y2="90.2627" gradientTransform="matrix(1 0 0 -1 0 483.9999)">
		<stop  offset="0" style="stop-color:#48BB78"/>
		<stop  offset="1" style="stop-color:#276749"/>
	</linearGradient>
	<path style="fill:url(#SVGID_00000101066655453611577970000010155567381286914476_);" d="M136.3,368.4c-2.7-0.6-5.5-1.2-7.9-2.6
		c-5-3.2-6.5-9.6-8.3-15.1c-1.8-5.6-5.7-11.7-11.6-11.7c-4.9,0-9.9,4.4-14.2,2c-1.6-0.9-2.6-2.5-3.9-3.8c-5.6-5.4-15.8-2.1-20,4.5
		c-4.2,6.6-4.2,15-4.2,22.8c0.1,2.9,1,6.6,3.9,6.6c2.7,0,4.4-3.9,7.1-3.5c2.2,0.2,3.1,3,2.9,5.2c-0.2,2.2-0.8,4.5,0.2,6.4
		c1.9,3.7,7.6,2.4,11.1,0.2c3.5-2.2,8.3-4.5,11.5-1.8c-0.3,8.6,0.2,18.7,7.5,23.4c8.3,5.3,19.9,1.4,29.6-0.3
		c18.1-3.2,34.4,6.9,48.3,18.9C181.9,394.6,161.1,374.1,136.3,368.4z"/>
	<path class="st14" d="M190.2,423.1c-6.2-16.1-11.1-32.7-14.9-49.5"/>
	<path class="st15" d="M183.8,369.9c-0.4-1.8-4.6-2.4-9.3-1.3s-8.2,3.4-7.8,5.2c0.4,1.8,4.6,2.4,9.3,1.3
		C180.7,374,184.2,371.7,183.8,369.9z"/>
	<path class="st14" d="M174.9,371.6c-2.1-9.6-3.8-19.1-5.1-28.8"/>
	<path class="st15" d="M179.5,337.2c-0.7-2.1-5.7-2.2-11.3-0.4c-5.5,1.9-9.5,5-8.8,7.1c0.7,2.1,5.7,2.2,11.3,0.4
		C176.3,342.4,180.2,339.2,179.5,337.2z"/>
	<path class="st14" d="M169.4,340.2c-1-8-1.8-16-2.3-24.1"/>
	<path class="st15" d="M178.2,313.3c0-2.2-4.8-3.9-10.6-3.8c-5.8,0.1-10.5,1.9-10.5,4c0,2.2,4.8,3.9,10.6,3.8
		C173.5,317.3,178.2,315.5,178.2,313.3z"/>
	<path class="st14" d="M167,312.8c-0.3-6.1-0.5-12.3-0.5-18.4"/>
	<path class="st15" d="M180.7,291c0-2.9-6.4-5.3-14.2-5.2c-7.8,0.1-14.2,2.5-14.1,5.5c0,2.9,6.4,5.3,14.2,5.2
		C174.4,296.4,180.7,294,180.7,291z"/>
	<path class="st14" d="M166.4,290.2c0.1-4.1,0.2-8.2,0.3-12.3"/>
	<path class="st6" d="M157.7,400.3l3.1-8.5c1.1-0.1,2.2,0.1,3.3,0.5l-3.3,9.1c-0.2,0.5,0.1,1.1,0.6,1.2c0.5,0.2,1.1-0.1,1.2-0.6
		l3.3-8.9c1,0.6,1.8,1.5,2.5,2.4l-2.8,7.6c-0.2,0.5,0.1,1.1,0.6,1.2c0.5,0.2,1.1-0.1,1.2-0.6l2.2-5.9c1.2,3.1,1.3,7-0.1,10.9
		c0,0.1-0.1,0.2-0.1,0.2c0.7,0.4,1.5,0.8,2.1,1.4c1.9,1.4,4.4,3.8,5.2,7.2l-0.9,0.2c-0.8-3.1-3.1-5.3-4.9-6.6
		c-0.6-0.5-1.2-0.8-1.9-1.2c-1.5,3.2-3.9,5.9-6.5,7.2l2.1-5.6c0.2-0.5-0.1-1.1-0.6-1.2c-0.5-0.2-1.1,0.1-1.2,0.6l-2.7,7.2
		c-1.2,0.3-2.3,0.4-3.5,0.2l3.1-8.5c0.2-0.5-0.1-1.1-0.6-1.2c-0.5-0.2-1.1,0.1-1.2,0.6l-3.2,8.6c-1-0.5-1.9-1.2-2.7-1.9l2.9-7.7
		c0.2-0.5-0.1-1.1-0.6-1.2c-0.5-0.2-1.1,0.1-1.2,0.6l-2.5,6.6c-0.8-1.2-1.5-2.4-2.1-3.7l1.5-4.2c0.2-0.5-0.1-1.1-0.6-1.2
		c-0.5-0.2-1.1,0.1-1.2,0.6l-0.8,2.2c-1.5-3.7-2.5-7.3-3.9-8.5c2.2-0.5,5.2-2.5,8.5-4.3l-1.1,2.9c-0.2,0.5,0.1,1.1,0.6,1.2
		c0.5,0.2,1.1-0.1,1.2-0.6l1.8-4.9c1.3-0.6,2.6-1.1,3.9-1.4l-2.7,7.5c-0.2,0.5,0.1,1.1,0.6,1.2C156.9,401,157.5,400.8,157.7,400.3z"
		/>
	<path class="st16" d="M141.3,153.9l-5.8-0.7c-0.5,0.1-1.1,0.1-1.6,0.2l9,1C142.3,154.3,141.8,154,141.3,153.9z M144.8,155.5
		l-13.1-1.5c-0.3,0.1-0.5,0.2-0.8,0.3l14.6,1.7C145.3,155.8,145.1,155.6,144.8,155.5z M146.6,156.9l-17.1-1.9
		c-0.2,0.1-0.4,0.2-0.6,0.3l18,2.1C146.8,157.1,146.7,157,146.6,156.9z M147.5,158.2l-19.7-2.2c-0.2,0.1-0.3,0.2-0.5,0.3l20.3,2.3
		C147.6,158.4,147.5,158.3,147.5,158.2z M147.9,159.4l-21.4-2.5c-0.2,0.1-0.2,0.2-0.4,0.4l21.9,2.5
		C147.9,159.7,147.9,159.5,147.9,159.4z M148.1,160.6l-22.7-2.6c-0.1,0.2-0.2,0.2-0.3,0.4l23,2.6
		C148.1,160.9,148.1,160.7,148.1,160.6z M148.1,161.8l-23.7-2.7c-0.1,0.2-0.2,0.2-0.3,0.4l23.9,2.8C148.1,162,148.1,162,148.1,161.8
		z M148,163l-24.4-2.8c-0.1,0.2-0.2,0.2-0.2,0.4l24.6,2.8C148,163.3,148,163.1,148,163z M147.6,164.3c0-0.1,0.1-0.1,0.1-0.2
		l-24.7-2.9c-0.1,0.2-0.2,0.2-0.2,0.4l24.7,2.9C147.5,164.4,147.5,164.4,147.6,164.3z M145.8,165.3c0.1,0,0.2-0.1,0.2-0.1l-23.7-2.7
		c-0.1,0.2-0.1,0.2-0.2,0.4l23.1,2.6C145.5,165.4,145.7,165.4,145.8,165.3z M144.2,166.1l-22.2-2.5c-0.1,0.2-0.1,0.2-0.1,0.4
		l21.9,2.5C143.9,166.4,144.1,166.3,144.2,166.1z M143,167.2l-21.4-2.5c0,0.2-0.1,0.2-0.1,0.4l21,2.4
		C142.8,167.4,142.9,167.3,143,167.2z M142.1,168.3l-20.7-2.4c0,0.2,0,0.2-0.1,0.4l20.4,2.3C142,168.5,142.1,168.4,142.1,168.3z
		 M141.5,169.4l-20.1-2.3c0,0.2,0,0.2,0,0.4l20,2.3C141.4,169.7,141.4,169.5,141.5,169.4z M141.1,170.6l-19.6-2.2c0,0.2,0,0.2,0,0.4
		l19.4,2.2C141,170.8,141.1,170.7,141.1,170.6z M140.8,171.8l-19.1-2.2c0,0.2,0.1,0.3,0.1,0.4l19,2.2
		C140.8,172,140.8,171.8,140.8,171.8z M122.3,171.2l18.6,2.2c0-0.2,0-0.2,0-0.4l-18.7-2.2C122.1,170.9,122.2,171.1,122.3,171.2z
		 M122.9,172.5l18.1,2.1c0-0.2-0.1-0.3-0.1-0.4l-18.3-2.1C122.7,172.1,122.8,172.3,122.9,172.5z M123.8,173.8l17.3,2
		c0-0.2,0-0.2,0-0.4l-17.7-2C123.6,173.5,123.6,173.6,123.8,173.8z M125.1,175.1c0.1,0,0.1,0.1,0.2,0.1l15.3,1.8
		c0.1-0.1,0.2-0.2,0.2-0.4l-16.1-1.9C124.8,174.8,125,174.9,125.1,175.1z M128.4,176.7l9.9,1.2c0.4-0.1,0.8-0.2,1.2-0.2l-12.5-1.5
		C127.4,176.3,128,176.5,128.4,176.7z"/>

		<linearGradient id="SVGID_00000024685839337584423800000010918736667170464169_" gradientUnits="userSpaceOnUse" x1="369.9981" y1="355.988" x2="460.1799" y2="324.748" gradientTransform="matrix(1 0 0 -1 0 483.9999)">
		<stop  offset="0" style="stop-color:#68D391"/>
		<stop  offset="1" style="stop-color:#C6F6D5"/>
	</linearGradient>
	<path style="fill:url(#SVGID_00000024685839337584423800000010918736667170464169_);" d="M392.4,209.1
		c12.6,4.3,22.5,12.5,28.5,22.2c13.5-13.5,26-34,34.5-58.4c17.2-49.8-13.9-105.7-13.9-105.7s-59.1,24.8-76.3,74.6
		c-8.5,24.4-11.3,48.2-9,67.2C367,205,379.9,204.8,392.4,209.1z"/>
	<path class="st18" d="M429.1,141c3.3,1.1,6.2,3,8.5,5.3c-1-8.4-6.6-15.8-15.1-18.8c-11.8-4.1-24.7,2.2-28.8,14
		c-2.9,8.5-0.5,17.5,5.4,23.4c-0.4-3.3-0.1-6.7,1.1-10C404.4,143.1,417.3,136.9,429.1,141z"/>
	<path class="st6" d="M436.6,156.3c1.2-3.3,1.5-6.7,1.1-10c-2.3-2.3-5.2-4.2-8.5-5.3c-11.8-4.1-24.7,2.2-28.8,14
		c-1.1,3.3-1.5,6.7-1.1,10c2.3,2.3,5.2,4.2,8.5,5.3C419.6,174.4,432.5,168.1,436.6,156.3z"/>
	<path class="st19" d="M445.1,175.9l-27.7,52.9l21.1,29.2C452.8,225.5,454.3,198.4,445.1,175.9z"/>
	<path class="st20" d="M374,151.3L363.1,210l-34.7,9.9C337.3,185.6,352.8,163.3,374,151.3z"/>
	<path class="st20" d="M440.4,73.5c-0.2,0-0.4,0-0.6,0c-0.6-0.2-1-0.9-0.7-1.5l12.9-37.2c0.2-0.6,0.9-1,1.5-0.7
		c0.6,0.2,1,0.9,0.7,1.5l-12.9,37.2C441.1,73.1,440.8,73.4,440.4,73.5z"/>
	<path class="st10" d="M400.9,304.3c0,0-0.1,0-0.1,0c-0.2,0-0.4-0.2-0.4-0.4c1.6-18,2-34.5,1.4-53.4c0-0.2,0.2-0.4,0.4-0.4
		c0.2,0,0.4,0.2,0.4,0.4c0.6,18.9,0.2,35.4-1.4,53.5C401.2,304.1,401,304.3,400.9,304.3z"/>
	<path class="st10" d="M331.8,280.4c-0.1,0-0.2,0-0.3-0.1c-0.2-0.1-0.2-0.4-0.1-0.6c10-15.2,19.8-28.4,32-42.9
		c0.1-0.2,0.4-0.2,0.6-0.1s0.2,0.4,0,0.6c-12.1,14.5-22,27.7-31.9,42.8C332,280.3,331.9,280.4,331.8,280.4z"/>
	<path class="st20" d="M393.1,314.2l4.9,7.9l8-4.9l-4.9-7.9L393.1,314.2z"/>
	<path class="st21" d="M346.8,314.5l-5.6,7.5l7.5,5.6l5.6-7.5L346.8,314.5z"/>
	<path class="st10" d="M332.8,255.3l3.4,5.4l5.4-3.4l-3.4-5.4L332.8,255.3z"/>
	<path class="st10" d="M353.6,310.3c-0.1,0-0.1,0-0.2,0c-0.2-0.1-0.3-0.3-0.2-0.5l18.4-53c0.1-0.2,0.3-0.3,0.5-0.2
		c0.2,0.1,0.3,0.3,0.2,0.5l-18.4,53C353.9,310.2,353.8,310.3,353.6,310.3z"/>
	<path class="st10" d="M382.6,294.9c0,0-0.1,0-0.1,0c-0.2,0-0.4-0.2-0.3-0.5l2.2-13.9c0-0.2,0.2-0.4,0.5-0.3c0.2,0,0.4,0.2,0.3,0.5
		l-2.2,13.9C382.9,294.8,382.8,294.9,382.6,294.9z"/>
	<path class="st20" d="M420.4,175c-4.6,0.9-9.5,0.6-14-0.9c-6.7-2.3-12.1-7.1-15.3-13.5c-3.1-6.4-3.5-13.6-1.2-20.3
		c3.1-8.9,10.7-15.5,19.9-17.4c4.6-0.9,9.5-0.6,14,0.9c13.9,4.8,21.3,20,16.5,33.9C437.3,166.5,429.7,173.1,420.4,175z M411.5,130.7
		c-6.4,1.3-11.8,6-13.9,12.2c-1.6,4.7-1.3,9.7,0.8,14.2c2.2,4.5,6,7.8,10.7,9.4c3.1,1.1,6.5,1.3,9.8,0.7c6.4-1.3,11.8-6,13.9-12.2
		c3.4-9.7-1.8-20.3-11.5-23.7C418.1,130.2,414.7,130,411.5,130.7z"/>

		<linearGradient id="SVGID_00000181790836898229255100000009389732567389913506_" gradientUnits="userSpaceOnUse" x1="467.3376" y1="350.573" x2="394.3376" y2="420.573" gradientTransform="matrix(1 0 0 -1 0 483.9999)">
		<stop  offset="0" style="stop-color:#9AE6B4;stop-opacity:0"/>
		<stop  offset="1" style="stop-color:#68D391"/>
	</linearGradient>
	<path style="fill:url(#SVGID_00000181790836898229255100000009389732567389913506_);" d="M401.8,105c25.2,8.7,45.5,24.7,58.5,44.1
		c3.4-42.3-18.7-82-18.7-82s-27.5,11.6-50.5,34.7C394.7,102.8,398.2,103.8,401.8,105z"/>

		<linearGradient id="SVGID_00000137098846702444335900000006335735521521201038_" gradientUnits="userSpaceOnUse" x1="405.25" y1="410.342" x2="466.1006" y2="389.2627" gradientTransform="matrix(1 0 0 -1 0 483.9999)">
		<stop  offset="0" style="stop-color:#ED8936"/>
		<stop  offset="1" style="stop-color:#ED8936"/>
	</linearGradient>
	<path style="fill:url(#SVGID_00000137098846702444335900000006335735521521201038_);" d="M459.4,114.2c-5-28.1-16.9-49.5-16.9-49.5
		s-22.6,9.5-44,28.5L459.4,114.2z"/>
	<path class="st21" d="M233.7,207.3c-36.7,6.9-60.1-4-84.6,2.8c0,0-12.9-58.8-24.2-84.3c7.5-11.3,25.1-17.6,37.8-22.5
		c20.2-7.8,38.8-19.9,54.2-35.2c19.8,21.7,61,70.1,61,70.1C259.7,153.8,252.4,182,233.7,207.3z"/>
	<path class="st15" d="M323,39.4L198.2,155.6L40.4,181.8l135-125.3L323,39.4z"/>
	<path class="st19" d="M196.8,95l-18.3,17.1l-23.1,3.8l19.8-18.4L196.8,95z"/>
	<path class="st19" d="M32.9,242.6c11.8-7.3,21.4-18.3,26.7-31c2.1-5.1,3.6-10.5,5-15.7c1.1-4.1,2.3-8.3,3.7-12.3
		c7.5-20.9,24.3-39.9,47.3-53.6c21.4-12.7,45.5-19.9,68.4-25.7c0.4-0.1,0.7-0.6,0.6-1c-0.1-0.4-0.6-0.7-1-0.6
		c-23,5.8-47.2,13-68.8,25.9c-23.3,13.9-40.4,33.2-48,54.5c-1.5,4.1-2.6,8.3-3.7,12.4c-1.4,5.2-2.9,10.5-4.9,15.5
		c-7.3,17.7-23.3,31.9-41.7,37.2c-5.3,1.5-9,1.4-11.7-0.4c-1.7-1.1-2.8-3.5-2.5-5.7c0.1-0.9,0.5-2.6,2.2-3.2
		c0.4-0.2,0.6-0.6,0.5-1.1c-0.2-0.4-0.6-0.6-1.1-0.5c-1.8,0.7-3,2.4-3.2,4.6c-0.3,2.8,1.1,5.8,3.3,7.2c4.1,2.7,9.4,1.6,13.1,0.6
		C22.4,248.2,27.9,245.7,32.9,242.6z"/>
	<path class="st19" d="M30,232c7.2-4.5,13.9-10.5,19.1-15.5c7.4-7.1,13-15.7,17.1-26.4c0.2-0.4-0.1-0.9-0.5-1.1
		c-0.4-0.2-0.9,0.1-1.1,0.5c-4,10.4-9.4,18.8-16.7,25.8c-6.5,6.2-15,13.8-24.1,18.2c-7.6,3.6-13.4,0.9-16.1-2.6
		c-1.9-2.5-2.2-5.2-0.7-6.9c0.3-0.3,0.3-0.9-0.1-1.2c-0.3-0.3-0.9-0.3-1.2,0.1c-2,2.3-1.7,5.9,0.7,9c3.3,4.3,10.1,6.9,18.1,3.1
		C26.5,234,28.3,233,30,232z"/>
	<path class="st19" d="M41.4,252.7c9.2-5.7,16.9-14.1,21.5-23.9c6.4-13.5,7.7-26.5,4-38.8c-0.1-0.4-0.6-0.7-1-0.5
		c-0.4,0.1-0.7,0.6-0.5,1c3.6,11.9,2.2,24.5-4,37.6c-5.7,12.1-16.1,22-28.5,27.1c-0.4,0.2-0.6,0.7-0.4,1.1c0.2,0.4,0.7,0.6,1.1,0.4
		C36.3,255.6,38.9,254.2,41.4,252.7z"/>
	<path class="st10" d="M293.8,291.1c-3.7,1-7.3,1.7-11,2.2c-0.9-3.9-1.7-7.5-2.2-11c3.6-0.9,7.3-1.6,11-2.2
		C292.6,283.6,293.3,287.3,293.8,291.1z"/>
	<path class="st10" d="M470.7,261.8l-6.4-6.4l6.4-6.4l6.4,6.4L470.7,261.8z"/>
	<path class="st10" d="M427,265.2l-1.8,0.9h2.3L427,265.2z"/>
	<path class="st10" d="M418.8,269.4h10.3l-0.9-1.7h-6.1L418.8,269.4z"/>
	<path class="st10" d="M412.5,272.7h18.3l-0.9-1.7h-14.1L412.5,272.7z"/>
	<path class="st10" d="M413.3,276h19.1l-0.9-1.7h-19.1L413.3,276z"/>
	<path class="st10" d="M415,279.3h19.1l-0.9-1.7h-19.1L415,279.3z"/>
	<path class="st10" d="M416.7,282.5h13.8l3.3-1.7h-18L416.7,282.5z"/>
	<path class="st10" d="M418.3,285.8h5.7l3.3-1.7h-10L418.3,285.8z"/>
	<path class="st10" d="M419.5,288.2l1.5-0.8h-1.9L419.5,288.2z"/>
	<path class="st10" d="M348.9,223.6l-1.1,0.6h1.4L348.9,223.6z"/>
	<path class="st10" d="M343.8,226.2h6.5l-0.6-1.1h-3.8L343.8,226.2z"/>
	<path class="st10" d="M339.8,228.3h11.5l-0.6-1.1h-8.8L339.8,228.3z"/>
	<path class="st10" d="M340.3,230.4h12l-0.6-1.1h-12L340.3,230.4z"/>
	<path class="st10" d="M341.4,232.4h12l-0.6-1.1h-12L341.4,232.4z"/>
	<path class="st10" d="M342.4,234.5h8.6l2.1-1.1h-11.3L342.4,234.5z"/>
	<path class="st10" d="M343.5,236.5h3.6l2.1-1.1h-6.2L343.5,236.5z"/>
	<path class="st10" d="M344.2,238l1-0.5H344L344.2,238z"/>
	<path class="st10" d="M423.7,338.3l-4.5-4.5l4.5-4.5l4.5,4.5L423.7,338.3z"/>
	<path class="st20" d="M320,238.7c-2.6,0.7-5.1,1.3-7.7,1.7c-0.7-2.7-1.3-5.3-1.7-7.7c2.5-0.7,5.1-1.2,7.7-1.7
		C319,233.4,319.6,236,320,238.7z"/>
	<path class="st20" d="M480.4,282.1c-2.1,0.1-4.2,0.1-6.2,0c-0.1-2.2-0.1-4.3,0-6.2c2.1-0.1,4.1-0.1,6.2,0
		C480.5,277.9,480.5,280,480.4,282.1z"/>
	<path class="st20" d="M266.8,317.4c-1.7,1-3.4,1.9-5.1,2.7c-1-1.8-2-3.5-2.7-5.1c1.7-1,3.4-1.9,5.1-2.7
		C265,313.9,265.9,315.6,266.8,317.4z"/>
	<path class="st10" d="M388.6,264.5c-1.6,1.6-3.2,3.1-4.9,4.5c-1.7-1.7-3.2-3.3-4.5-4.9c1.6-1.6,3.2-3.1,4.9-4.5
		C385.7,261.2,387.2,262.8,388.6,264.5z"/>
</g>
</svg>
