<svg version="1.1" id="_イヤー_2" xmlns="http://www.w3.org/2000/svg" x="0" y="0" viewBox="0 0 360 163" style="enable-background:new 0 0 360 163" xml:space="preserve"><style>.st0,.st1{fill-rule:evenodd;clip-rule:evenodd;fill:#c05621}.st1{fill:#2f855a}.st5{fill:#48bb78}.st6{fill:#ed8936}.st7{fill:#4a5568}</style><g id="Layer_1"><path class="st0" d="m52.6 108.7-31.3 28.6 8.6 6.7 22.7-21.5z"/><path class="st1" d="M22.2 100.9 0 120.6l8.5 6.7 13.7-12.6zM48.4 28.5l-8.5 7V11.4l8.5-6.8z"/><path style="fill-rule:evenodd;clip-rule:evenodd;fill:#48bb78" d="M48.4 4.6 8.5 38.2v89.1L0 120.6V34.3l1.5-1.2L39.5.5z"/><path class="st0" d="m69.7 33.3-8.5 7.1V28.1l8.5-6.8z"/><path style="fill-rule:evenodd;clip-rule:evenodd;fill:#ed8936" d="M69.7 21.3 29.9 54.9V144l-8.6-6.7V51l1.6-1.2 37.9-32.6z"/><path style="fill:#2f855a" d="M112.5 108.7h-10.6l24.5 31h10.8z"/><path class="st5" d="M104.1 48.1c3.6.1 7 .9 10.1 2.3s6 3.4 8.3 5.9c2.4 2.4 4.3 5.3 5.6 8.6 1.4 3.3 2 6.8 2 10.5 0 3.4-.6 7-1.7 10-1.2 3-2.8 5.7-4.8 8.1-2 2.4-4.4 4.4-7.1 6-2.7 1.6-5.7 2.6-8.9 3.1H75.7V94h27.7c2.5 0 4.8-.5 7.1-1.5 2.2-1 4.2-2.3 5.9-4s3-3.7 4-5.9 1.4-4.7 1.4-7.3c0-2.6-.5-5.1-1.4-7.4-1-2.3-2.3-4.3-4-5.9-1.7-1.7-3.6-3-5.9-4-2.2-1-4.6-1.5-7.1-1.5H69.6v46.1l-.1 8.6-8.3 8.1V48.1h42.9z"/><path class="st6" d="M194.3 82.6s-.1 0 0 0c-.7-.5-1.4-1-2.1-1.4-.1-.1-.2-.1-.3-.2-.7-.4-1.3-.7-2-1.1l-.6-.3c-.6-.3-1.2-.6-1.9-.8l-.9-.3c-.6-.2-1.1-.4-1.7-.6-.4-.1-.9-.2-1.3-.3l-1.5-.3c-.6-.1-1.2-.2-1.7-.3-.4 0-.8-.1-1.2-.2-1-.1-2-.1-3-.1-17.3 0-31.3 13.8-31.3 30.7s14 30.7 31.3 30.7c7.9 0 15-2.9 20.5-7.6-2-1.7-3.8-3.6-5.3-5.8-4.1 3.5-9.4 5.6-15.2 5.6-11.5 0-21.1-8.3-23-19.1-.5-3 0-7.6 0-7.6 1.8-10.6 11-18.7 22.2-19.1h.8c.8 0 1.5 0 2.3.1.3 0 .7.1 1 .1.4 0 .8.1 1.1.2.5.1.9.2 1.4.3.2.1.4.1.7.2.6.2 1.1.3 1.6.5.1 0 .2.1.3.1 2.5 1 4.9 2.4 6.9 4.1 4 3.4 6.9 8.2 7.8 13.6h-43c-.5 3.7-.2 6.5 0 7.6h43v.1h8c.2-1.3.3-2.5.3-3.9-.3-10.3-5.4-19.3-13.2-24.9z"/><path class="st5" d="M253 76.4c-17.1 0-30.9 13.5-31.3 30.1v56l7.7-6 .2-15.6v-34.4c.3-12.4 10.7-22.3 23.4-22.3s23.4 10.3 23.4 22.9S265.9 130 253 130c-8.7 0-16.4-4.7-20.4-11.7v12c5.5 4.6 12.6 7.5 20.4 7.5 17.3 0 31.3-13.8 31.3-30.7S270.2 76.4 253 76.4z"/><path class="st6" d="M328.7 137.8c-17.3 0-31.3-13.8-31.3-30.7s14-30.7 31.3-30.7S360 90.2 360 107.1s-14 30.7-31.3 30.7zm0-53.6c-12.9 0-23.4 10.3-23.4 22.9s10.5 22.9 23.4 22.9c12.9 0 23.4-10.3 23.4-22.9s-10.5-22.9-23.4-22.9z"/><path class="st7" d="M224.4 57.3c.3 0 .5.1 1 .1h.7c.4 0 .7 0 1-.1 0 .4-.1.7-.1 1.3v2.5c.2.4.3.6.6.8.7.5 1.5.7 3 .7 2.6 0 4.3-.1 5.6-.2-.2.4-.2.5-.3.9-1.4.1-2.8.1-4.3.1-2.2 0-3-.1-3.7-.4-.6-.2-1-.6-1.4-1.2-.5.5-.9.8-1.5 1.3-.2.1-.2.1-.5.4l-.4-.8c.6-.3 1.3-.8 2.1-1.5v-3h-.9c-.4 0-.6 0-1 .1l.1-1zm.9-4.8c.9.8 1.4 1.3 2.1 2.2l-.7.6c-.7-1-1.1-1.5-2-2.3l.6-.5zm3.8 1.5c0 2.6-.1 4.3-.2 5.4-.1.9-.3 1.4-.7 2.3-.2-.2-.4-.3-.7-.5.4-.8.6-1.5.7-2.7.1-1 .2-2.3.2-4.5 0-.6 0-1.1-.1-1.4h7.2V60.9c0 .7-.3.9-1.4.9H233c0-.4 0-.5-.2-.8.5.1.9.1 1.4.1.3 0 .4-.1.4-.4v-7.4h-5.5v.7zm2.3 1.2H229.7v-.7c.3 0 .7.1 1.2.1h.5c0-.5 0-.7-.1-.9h.8c0 .2-.1.5-.1.9h.7c.4 0 .8 0 1.1-.1v.7H232v1.1h1c.6 0 .8 0 1.1-.1v.8c-.4 0-.7-.1-1.1-.1h-2.6c-.4 0-.8 0-1.2.1v-.7c.3 0 .6.1 1.2.1h.8v-1.2zm-1.5 5.8v-3.3h3.8v2.8h-3v.5h-.8zm.7-1.3h2.3v-1.4h-2.3v1.4zM244.1 55.7c.5 0 .7 0 1-.1v.8h-5.6v-.8c.3 0 .5.1 1 .1h1.5v-1.3h-2.2v-.8h2.2v-.4c0-.4 0-.8-.1-1.1h.9c0 .4-.1.7-.1 1.1v.4h2v.8h-2v1.3h1.4zm0 2.8c.5 0 .7 0 1-.1v.8h-2.3v1.3h2.2v.8h-2.2v1.3c0 .4 0 .8.1 1.2h-.9c.1-.4.1-.8.1-1.2v-1.3h-2.3v-.8h2.3v-1.3h-2.5v-.8c.3 0 .5.1 1 .1h2.4c.4-.8.5-1.2.7-2l.7.2c-.2.7-.4 1.2-.7 1.8h.4zm-3.2-.1c-.1-.6-.3-1.1-.5-1.7l.6-.2c.3.7.3.9.5 1.6l-.6.3zm5.3-1v5c0 .5 0 .8.1 1.3h-.9c.1-.5.1-.8.1-1.3v-8.5c0-.4 0-.8-.1-1.2.3 0 .7.1 1.2.1h4.1c0 .1 0 .4-.1.9-.1.9-.2 1.5-.4 1.8-.2.3-.5.4-1.1.4-.4 0-.7 0-1.3-.1 0-.3-.1-.5-.2-.8.6.1 1.1.2 1.5.2.5 0 .6-.2.7-1.6h-3.6v3.2h3.8l.5.5c-.1.1-.1.2-.2.5-.3 1.2-.7 2.4-1.3 3.3.7.8 1.2 1.2 2.2 1.8-.2.2-.4.4-.5.7-.9-.6-1.4-1.1-2.1-1.9-.5.7-1 1.2-1.7 1.9-.2-.2-.3-.4-.6-.6.8-.6 1.3-1.1 1.8-1.8-.7-.9-1.1-1.9-1.5-3.6l-.4-.2zm1.1 0c.4 1.6.6 2.1 1.2 3 .5-.9.8-1.7 1-3h-2.2zM258.2 52.4c-.2.3-.2.5-.3.7-.3.8-.5 1.1-1 2.1v6.9c0 .6 0 1.1.1 1.5h-1c.1-.5.1-.9.1-1.5V56.3c-.4.7-.9 1.3-1.6 2-.2-.2-.3-.5-.5-.7 1.1-1 2-2.3 2.7-3.8.3-.7.5-1.2.5-1.7l1 .3zm2 2.5c-.6 1.2-1.2 2.1-2 3.1l-.6-.6c1-1 1.7-2.1 2.3-3.5.3-.7.5-1.4.5-1.8l.9.3c-.1.2-.1.3-.3.6-.2.5-.2.7-.4 1.1h4.1c.5 0 .8 0 1.2-.1v1c-.3 0-.6-.1-1.2-.1h-3v2h2.6c.5 0 .8 0 1.1-.1v.9c-.4 0-.7-.1-1.1-.1h-2.6v2h2.7c.5 0 .8 0 1.1-.1v.9c-.3 0-.7-.1-1.1-.1h-2.7v1.9c0 .6 0 1 .1 1.3h-1c0-.3.1-.7.1-1.3v-7.5l-.7.2zM279.8 56.4c0 .1-.2.3-.4.8-.7 1.7-1 2.1-1.7 3.1.4.8.7 1.2 1.3 1.7.2.2.4.3.6.3.2 0 .4-.7.6-1.8.3.3.5.4.7.6-.2.8-.3 1.2-.5 1.5-.2.4-.5.6-.8.6s-.9-.3-1.4-.8c-.4-.4-.7-.8-1.1-1.4-1.1 1.1-2.1 1.8-3.6 2.5-.2-.3-.3-.4-.6-.6 1.6-.6 2.8-1.4 3.8-2.6-.6-1.4-1-3.1-1.1-5.3h-4.5v2.1h3.5c0 .2-.1.7-.1 1.4-.1 1.4-.2 2.3-.4 2.7-.2.4-.5.5-1.2.5-.5 0-.8 0-1.4-.1 0-.3 0-.5-.2-.8.7.1 1.1.2 1.5.2.4 0 .5-.1.6-.7.1-.5.2-1.5.2-2.5H271c-.1 1.6-.2 2.5-.4 3.5-.2.9-.4 1.4-1 2.2-.2-.3-.4-.4-.7-.6.5-.7.7-1.2.9-1.9.3-1.1.4-2.8.4-5.3 0-.8 0-1-.1-1.5.4 0 .9.1 1.6.1h3.8c0-1.6-.1-1.8-.1-2h1c0 .2-.1.6-.1 1v1h2.8c.7 0 1.1 0 1.4-.1v.9c-.4 0-.8-.1-1.4-.1h-2.7c.1 1.8.4 3.3.9 4.5.8-1.1 1.4-2.5 1.6-3.5.1.1.9.4.9.4zm-.7-2.3c-.7-.6-1-.8-1.9-1.3l.6-.4c.9.5 1 .6 1.8 1.3l-.5.4zM289.5 53.3c0-.5 0-.8-.1-1.1h1c-.1.3-.1.6-.1 1.1v.8h3.9c.5 0 1 0 1.4-.1v.9c-.4 0-.8-.1-1.4-.1h-3.9v2h1.7c.6 0 .9 0 1.1-.1l.6.5c-.2.2-.2.3-.4.6-.7 1-1.5 1.9-2.6 2.8 1.4.9 2.9 1.5 5 1.9-.2.3-.3.5-.5.8-2.2-.5-3.7-1.2-5.2-2.3-1.6 1.1-3.2 1.8-5.3 2.2-.1-.3-.2-.5-.5-.8 2-.3 3.5-.9 5.1-1.9-.6-.5-1.1-1-1.5-1.5-.4-.5-.6-.8-1-1.7h-.2c-.6 0-1 0-1.4.1v-.9c.3 0 .8.1 1.4.1h2.7v-2h-3.7c-.5 0-1 0-1.3.1V54c.4.1.8.1 1.4.1h3.7v-.8h.1zm-1.6 4.3c.6 1.2 1.1 1.8 2.2 2.7 1.2-.9 1.8-1.6 2.5-2.7h-4.7zM299.2 53.6c0-.6 0-.9-.1-1.3h1c0 .3-.1.7-.1 1.3v1.2H301.2v.8H300v2.3c.4-.2.6-.3 1.1-.5v.7c-.5.3-.7.4-1.1.6v4.2c0 .7-.3.9-1.3.9h-.8c0-.3-.1-.5-.2-.8.4.1.8.1 1.1.1.3 0 .3-.1.3-.2v-3.8c-.5.2-.6.2-1 .4-.2.1-.3.1-.6.2l-.2-.8c.4-.1.6-.1 1.8-.6v-2.6h-1.6v-.8c.3 0 .5.1.9.1h.7v-1.4h.1zm3.6 3h-1.2v-.8c.3 0 .6.1 1.2.1h3.7c.6-.9 1-1.6 1.3-2.4l.8.3c-.7 1.3-.7 1.4-1.3 2.1h.6c.6 0 .8 0 1.1-.1v.8h-4.8c0 .6-.1.7-.1 1.1h3.7c.7 0 1.1 0 1.4-.1v.8c-.4 0-.8-.1-1.4-.1h-3.9c-.1.4-.1.6-.2.9h4.1l.4.5c-.1.1-.2.2-.3.4-.3.5-1 1.2-1.6 1.7 1 .6 1.9.8 3.3 1.1-.2.3-.3.4-.4.8-1.5-.4-2.4-.8-3.4-1.5-1 .7-2 1.1-3.3 1.4-.1-.3-.2-.5-.4-.7 1.3-.3 2.1-.6 3.1-1.2-.7-.5-1.2-1-1.6-1.6-.6 1.4-1.4 2.4-2.6 3.4-.1-.2-.3-.4-.6-.6.9-.7 1.3-1.2 1.9-2 .5-.8.9-1.7 1.1-2.6h-.4c-.6 0-1 0-1.3.1v-.8c.3 0 .7.1 1.3.1h.5c0-.4.1-.6.1-1.1h-.8zm5.9-3.7c-.2 0-.4.1-.6.1-1.6.4-4.3.7-6.7.7 0-.3-.1-.4-.3-.7h.3c2.5 0 5.7-.4 6.7-.8l.6.7zm-5.9 2.9c-.2-.7-.4-1.1-.8-1.6l.7-.2c.4.5.6.9.8 1.6l-.7.2zm1.1 4.1c.4.5.9 1 1.6 1.5.6-.5 1-.9 1.4-1.5h-3zm1-4.2c-.2-.7-.4-1.1-.7-1.7l.7-.2c.4.6.5 1 .8 1.7l-.8.2zM314.9 54c.7 1.1 1.1 2.1 1.6 3.5l-.9.3c-.4-1.3-.9-2.5-1.5-3.5l.8-.3zm9.1-.1-.3.9c-.3 1.4-.6 2.2-1.1 3.1-1.2 2.4-2.8 3.9-5.7 5.3-.2-.4-.3-.5-.7-.8 1.4-.5 2.5-1.3 3.6-2.2 1.4-1.3 2.4-3.2 2.9-5.3.1-.5.2-.8.2-1.2 0-.1 1.1.2 1.1.2zm-5.8-.5c.6 1 1.1 2.1 1.6 3.4l-.9.3c-.4-1.3-.8-2.3-1.5-3.4l.8-.3zM328.5 57.4c.4.1.7.1 1.6.1h7.5c1 0 1.2 0 1.6-.1v1h-10.7v-1zM346.9 53.2c0 .2-.1.6-.1 1.1-.1 3.4-.2 4.4-.7 5.6-.4 1.2-1.1 2-2.2 3.1-.3-.3-.4-.4-.8-.7 1.1-.8 1.8-1.7 2.2-2.9.4-1.1.6-2.8.6-5.4v-.9l1 .1zm3.2-.2c-.1.3-.1.5-.1 1.1l-.1 7.6c1.1-.4 1.7-.8 2.4-1.5s1.2-1.6 1.5-2.5c.3.3.4.5.7.7-.6 1.5-1.5 2.5-2.6 3.2-.6.4-1.1.6-1.8.9-.2.1-.3.1-.4.1-.2.1-.2.1-.3.1l-.5-.6c.1-.2.1-.3.1-.9l.1-7.4v-1.1l1 .3z"/></g></svg>